<?xml version="1.0" encoding="UTF-8"?>
<svg id="Capa_2" data-name="Capa 2" xmlns="http://www.w3.org/2000/svg" viewBox="0 0 352 168">
  <defs>
    <style>
      .cls-1 {
        fill: #b6ceb6;
      }

      .cls-1, .cls-2, .cls-3 {
        stroke-width: 0px;
      }

      .cls-2 {
        fill: #a1b8a4;
      }

      .cls-3 {
        fill: #fff;
      }
    </style>
  </defs>
  <g id="Capa_1-2" data-name="Capa 1">
    <g>
      <g>
        <polygon class="cls-1" points="0 23 352 0 325 167 18 168 0 23"/>
        <circle class="cls-3" cx="43" cy="41" r="3"/>
        <circle class="cls-3" cx="102" cy="34" r="3"/>
        <circle class="cls-3" cx="99" cy="69" r="3"/>
        <circle class="cls-3" cx="51" cy="75" r="3"/>
        <circle class="cls-3" cx="80" cy="96" r="3"/>
        <circle class="cls-3" cx="37" cy="120" r="3"/>
        <circle class="cls-3" cx="125" cy="108" r="3"/>
        <circle class="cls-3" cx="96" cy="139" r="3"/>
        <circle class="cls-3" cx="54" cy="155" r="3"/>
        <circle class="cls-3" cx="139" cy="78" r="3"/>
        <circle class="cls-3" cx="145" cy="44" r="3"/>
        <circle class="cls-3" cx="185" cy="66" r="3"/>
        <circle class="cls-3" cx="188" cy="96" r="3"/>
        <circle class="cls-3" cx="238" cy="78" r="3"/>
        <circle class="cls-3" cx="290" cy="69" r="3"/>
        <circle class="cls-3" cx="312" cy="108" r="3"/>
        <circle class="cls-3" cx="315" cy="40" r="3"/>
        <circle class="cls-3" cx="279" cy="16" r="3"/>
        <circle class="cls-3" cx="244" cy="37" r="3"/>
        <circle class="cls-3" cx="220" cy="130" r="3"/>
        <circle class="cls-3" cx="265" cy="114" r="3"/>
        <circle class="cls-3" cx="259" cy="152" r="3"/>
        <circle class="cls-3" cx="306" cy="145" r="3"/>
        <circle class="cls-3" cx="164" cy="123" r="3"/>
        <circle class="cls-3" cx="154" cy="155" r="3"/>
        <circle class="cls-3" cx="196" cy="31" r="3"/>
      </g>
      <polygon class="cls-2" points="0 22 2 33 349 14 352 0 0 22"/>
    </g>
  </g>
</svg>