<?xml version="1.0" encoding="UTF-8"?>
<svg id="Capa_2" data-name="Capa 2" xmlns="http://www.w3.org/2000/svg" viewBox="0 0 399 259.06">
  <defs>
    <style>
      .cls-1 {
        fill: #e6454b;
      }

      .cls-1, .cls-2 {
        stroke-width: 0px;
      }

      .cls-3 {
        letter-spacing: -.04em;
      }

      .cls-4 {
        fill: #ffbfa6;
        font-family: GillSans-UltraBoldCondensed, 'Gill Sans Ultra Bold Condensed';
        font-size: 36px;
        font-weight: 700;
      }

      .cls-2 {
        fill: #c2373c;
      }
    </style>
  </defs>
  <g id="Capa_1-2" data-name="Capa 1">
    <g>
      <path class="cls-1" d="m0,178.06l12,81s363-24,372-23l15-100L0,178.06Z"/>
      <text class="cls-4" transform="translate(82.51 222.54) rotate(-3.98)"><tspan x="0" y="0">Open </tspan><tspan class="cls-3" x="89.24" y="0">y</tspan><tspan x="105.91" y="0">our gift !</tspan></text>
      <path class="cls-2" d="m339.39,132.06s7.61-17,8.61-24c0,0-37,36-95,37,0,0,30-11,58-43,0,0,13-13,15-47,0,0,3-20-12-39,0,0-9-15-25-16s-29,11-34,21-10,28-9,40c0,0-2,17-4,23s-17,40-28,50c0,0-15,10-31-18,0,0-11-37-20-46s-16-19-46-24-40,25-39,29c0,0-2,30,13,43,0,0,9,13,42,24,0,0,25,8,39,10,0,0-49,8-97-20v16.2s-30,7.8-32,9.8c0,0,42,9,60.5,9.5l232-24,17.5-11.5h-13.61Zm-228.89-15.5c-24-15-20-37-20-37,2-26,28-21,28-21,35,4,46,42,46,42,5,16,18,37,18,37-45-4-72-21-72-21Zm147.5-31.5s-3-64,22-72c0,0,18-11,28,10s3.6,49.48,3.6,49.48c0,0-10.1,47.68-75.6,62.35,0,0,20-32.83,22-49.83Z"/>
    </g>
  </g>
</svg>